<?xml version="1.0" encoding="UTF-8"?>
<!DOCTYPE svg PUBLIC "-//W3C//DTD SVG 1.1//EN" "http://www.w3.org/Graphics/SVG/1.1/DTD/svg11.dtd">
<!-- Creator: CorelDRAW 2021.5 -->
<svg xmlns="http://www.w3.org/2000/svg" xml:space="preserve" width="61.406mm" height="95.6003mm" version="1.1" style="shape-rendering:geometricPrecision; text-rendering:geometricPrecision; image-rendering:optimizeQuality; fill-rule:evenodd; clip-rule:evenodd"
viewBox="0 0 2074.57 3229.8"
 xmlns:xlink="http://www.w3.org/1999/xlink"
 xmlns:xodm="http://www.corel.com/coreldraw/odm/2003">
 <defs>
  <style type="text/css">
   <![CDATA[
    .fil0 {fill:#D7B56D;fill-rule:nonzero}
   ]]>
  </style>
 </defs>
 <g id="Слой_x0020_1">
  <metadata id="CorelCorpID_0Corel-Layer"/>
  <path class="fil0" d="M933.54 2810.43c-1.97,0 -3.65,0.7 -5.03,2.07 -1.4,1.39 -2.08,3.01 -2.08,4.85l0 46.76 -55.35 0 0 -46.76c0,-1.83 -0.69,-3.46 -2.09,-4.85 -1.38,-1.37 -3.06,-2.07 -5.03,-2.07 -1.97,0 -3.67,0.7 -5.13,2.07 -1.44,1.39 -2.16,3.01 -2.16,4.85l0 107.37c0,1.85 0.72,3.46 2.16,4.85 1.45,1.37 3.16,2.07 5.13,2.07 1.97,0 3.65,-0.7 5.03,-2.07 1.4,-1.4 2.09,-3 2.09,-4.85l0 -46.75 55.35 0 0 46.75c0,1.85 0.69,3.46 2.08,4.85 1.38,1.37 3.06,2.07 5.03,2.07 1.97,0 3.64,-0.7 5.03,-2.07 1.4,-1.4 2.09,-3 2.09,-4.85l0 -107.37c0,-1.83 -0.69,-3.46 -2.09,-4.85 -1.39,-1.37 -3.06,-2.07 -5.03,-2.07zm86.84 91.17c-1.33,3.05 -3.16,5.75 -5.47,8.06 -2.31,2.31 -5.03,4.13 -8.15,5.45 -3.12,1.33 -6.48,1.99 -10.07,1.99 -3.57,0 -6.94,-0.66 -10.06,-1.99 -3.12,-1.32 -5.84,-3.13 -8.15,-5.45 -2.31,-2.31 -4.14,-5.01 -5.46,-8.06 -1.33,-3.05 -2,-6.38 -2,-9.96 0,-3.56 0.67,-6.95 2,-10.12 1.32,-3.18 3.15,-5.92 5.46,-8.24 2.31,-2.3 5.03,-4.12 8.15,-5.46 3.13,-1.32 6.49,-1.99 10.06,-1.99 3.59,0 6.95,0.67 10.07,1.99 3.12,1.33 5.84,3.16 8.15,5.46 2.31,2.31 4.14,5.05 5.47,8.24 1.32,3.17 1.99,6.55 1.99,10.12 0,3.59 -0.67,6.91 -1.99,9.96zm4.68 -38.53c-3.65,-3.7 -7.89,-6.61 -12.75,-8.74 -4.86,-2.15 -10.06,-3.22 -15.63,-3.22 -5.54,0 -10.77,1.07 -15.7,3.22 -4.92,2.12 -9.19,5.04 -12.84,8.74 -3.65,3.71 -6.51,8 -8.59,12.91 -2.07,4.9 -3.12,10.13 -3.12,15.66 0,5.54 1.05,10.75 3.12,15.59 2.08,4.85 4.95,9.09 8.59,12.73 3.65,3.64 7.92,6.5 12.84,8.57 4.92,2.08 10.15,3.12 15.7,3.12 5.56,0 10.76,-1.04 15.63,-3.12 4.86,-2.07 9.1,-4.94 12.75,-8.57 3.64,-3.64 6.53,-7.88 8.68,-12.73 2.13,-4.84 3.21,-10.04 3.21,-15.59 0,-5.53 -1.07,-10.76 -3.21,-15.66 -2.15,-4.91 -5.04,-9.2 -8.68,-12.91zm69.32 -11.95l-14.92 0 0 -36.37c0,-1.97 -0.69,-3.66 -2.08,-5.1 -1.38,-1.46 -3.06,-2.17 -5.03,-2.17 -1.98,0 -3.67,0.72 -5.13,2.17 -1.44,1.44 -2.16,3.13 -2.16,5.1l0 36.37 -14.58 0c-1.98,0 -3.68,0.74 -5.13,2.18 -1.44,1.44 -2.17,3.2 -2.17,5.27 0,1.97 0.73,3.67 2.17,5.11 1.44,1.44 3.15,2.16 5.13,2.16l14.58 0 0 58.55c0,1.97 0.71,3.66 2.16,5.1 1.46,1.44 3.15,2.17 5.13,2.17 1.97,0 3.65,-0.73 5.03,-2.17 1.4,-1.44 2.08,-3.14 2.08,-5.1l0 -58.55 14.92 0c1.97,0 3.65,-0.71 5.03,-2.16 1.4,-1.44 2.08,-3.15 2.08,-5.11 0,-2.07 -0.69,-3.83 -2.08,-5.27 -1.38,-1.44 -3.06,-2.18 -5.03,-2.18zm38.34 31.18c2.78,-5.2 5.65,-9.14 8.59,-11.86 2.95,-2.72 6.74,-4.07 11.36,-4.07 4.86,0 8.7,1.33 11.54,3.98 2.84,2.67 5.41,6.64 7.72,11.95l-39.21 0zm44.41 -19.74c-3.35,-3.35 -7.26,-6.1 -11.7,-8.22 -4.46,-2.15 -8.88,-3.22 -13.28,-3.22 -4.74,0 -9.21,1.07 -13.44,3.22 -4.22,2.12 -7.89,5.01 -11.01,8.65 -3.12,3.64 -5.61,7.9 -7.46,12.81 -1.85,4.9 -2.78,10.13 -2.78,15.67 0,10.98 2.89,20.14 8.68,27.53 3,3.71 6.77,6.64 11.27,8.84 4.51,2.18 9.43,3.41 14.74,3.62 0.47,0.12 1.4,0.18 2.78,0.18 2.43,0 5.61,-0.37 9.55,-1.13 3.93,-0.74 7.93,-2.39 11.98,-4.94 0.92,-0.92 1.75,-1.92 2.52,-3.03 0.74,-1.11 1.13,-2.26 1.13,-3.55 0,-1.38 -0.24,-2.3 -0.7,-2.77 -1.85,-2.88 -4.11,-4.32 -6.76,-4.32 -0.7,0 -1.37,0.11 -2,0.34 -0.65,0.23 -1.37,0.52 -2.17,0.86 -2.89,1.97 -5.68,3.12 -8.33,3.47 -2.66,0.34 -4.8,0.51 -6.41,0.51l-1.22 0c-2.9,-0.12 -5.47,-0.77 -7.72,-1.99 -2.25,-1.2 -4.23,-2.79 -5.9,-4.75 -1.68,-1.97 -3.1,-4.14 -4.26,-6.5 -1.16,-2.36 -2.15,-4.71 -2.94,-7.01l48.05 0c1.97,0 3.65,-0.74 5.03,-2.18 1.39,-1.43 2.08,-3.19 2.08,-5.27 0,-5.09 -0.87,-9.93 -2.6,-14.55 -1.73,-4.61 -4.11,-8.71 -7.13,-12.29zm38.62 -52.9c-1.44,-1.46 -3.22,-2.17 -5.29,-2.17 -1.98,0 -3.67,0.72 -5.11,2.17 -1.46,1.44 -2.18,3.13 -2.18,5.1l0 109.63c0,1.97 0.73,3.66 2.18,5.1 1.44,1.44 3.13,2.17 5.11,2.17 2.07,0 3.85,-0.73 5.29,-2.17 1.44,-1.44 2.16,-3.14 2.16,-5.1l0 -109.63c0,-1.97 -0.72,-3.66 -2.16,-5.1zm-304.47 -810.01c12.6,-17.22 20.95,-28.68 31.37,-44.84 18.7,-29.02 31.92,-54.44 40.63,-72.57 11.23,-20.28 21.74,-44.75 28.51,-73.29 1.21,-5.09 2.24,-10.07 3.13,-14.96 -1.12,-29.05 -14.93,-48.09 -27.36,-48.38 -13.46,-0.29 -28.54,21.33 -24.33,31.29 2.3,5.42 8.93,4.1 18.63,14.25 2.59,2.73 6.63,7.04 9.05,13.94 2.32,6.63 2.06,12.53 1.65,15.95 -5.04,20.36 -12.84,43.82 -25.16,68.56 -4.54,9.13 -9.29,17.58 -14.05,25.36 -6.99,11.62 -16.1,26.42 -27.09,43.41 -2.37,3.64 -16.89,26.07 -31.39,46.67 -23.99,34.09 -43.41,57.27 -74.99,95.05 -26.39,31.57 -38.01,43.98 -48.69,54.68 -18.13,18.18 -31.5,29.33 -44.74,38.85 -11.45,8.24 -21.62,14.4 -29.1,18.63 -7.26,2.85 -10.76,1.89 -12.61,0.5 -9.83,-7.32 3.67,-42.98 19.8,-82.02 6.73,-16.33 12.28,-29.75 21.77,-48.94 11.9,-23.97 16.8,-30.37 25.86,-46.3 5.19,-9.1 8.7,-15.9 12.11,-22.51 5.52,-10.72 15.27,-29.74 25.4,-54.87 7.62,-18.88 12.73,-31.72 16.82,-50.25 5.01,-22.66 4.11,-33.92 1.83,-42.97 -1.84,-7.3 -5.41,-20.69 -16.83,-26.63 -3.52,-1.82 -8.47,-3.32 -15.92,-2.73 -23.15,1.82 -44.61,22.49 -71.96,49.46 -23.45,23.12 -41.92,45.61 -41.92,45.61 -5.03,6.84 -39.28,53.63 -58.2,89.82 -2.14,4.09 -8.51,16.61 -8.72,33.29 -0.12,8.45 -0.26,19.33 7.09,25.28 7.46,6.05 20.31,5.08 32.11,-1.8 9.01,-3.79 22.03,-10.71 33.97,-23.35 4.91,-5.21 8.72,-10.41 11.66,-15.08 0.62,-3.67 0.93,-7.76 -0.72,-8.55 -2.56,-1.23 -8.32,6.53 -13.91,12.61 -6.26,6.82 -15.79,15.31 -30.28,22.97 -5.2,2.75 -8.84,2.97 -12.11,1.43 -10.59,-5 -7.75,-31.58 -5.19,-43.9 2.77,-13.31 7.96,-23.37 11.6,-29.4 14.31,-23.11 32.2,-48.66 54.49,-74.93 19.45,-22.94 32.42,-37.06 47.03,-49.66 8,-6.89 15.01,-12.26 20.05,-15.98 6.13,-2.69 14.4,-5.06 20.09,-1.38 11.81,7.64 4.74,36.13 2.68,45.03 -2.85,12.33 -5.94,17.96 -21.24,49.65 -15.73,32.6 -11.23,24.3 -24.73,51.56 -3.72,7.51 -11.25,22.68 -20.86,41.95 -18.95,37.99 -32.07,66.49 -44.57,96.99 -4.16,10.14 -11.55,28.63 -14.85,53.61 -4.19,31.69 2.79,39.4 6.61,42.15 4.46,3.22 10.01,3.51 13.06,3.65 2.75,0.13 8.04,0.03 25.35,-7.62 5.73,-2.54 10.45,-4.86 13.86,-6.61 15.57,-11.56 37.29,-28.75 61.48,-51.59 9.09,-8.59 17.2,-16.71 24.97,-24.94 17.77,-18.82 33.84,-38.25 56.04,-65.1 29.56,-35.74 49.96,-63.54 62.82,-81.07zm49.72 31.36c-2.46,-0.51 -4.89,0.34 -6.14,2.15 -1.05,1.49 -0.95,3.14 -0.9,3.71 0,7.81 7.82,16.01 15.63,16.01 1.96,0 3.91,-0.78 5.86,-1.96 0.32,-1.3 0.42,-2.49 0.38,-3.5 -0.23,-8.29 -8.56,-13.62 -10,-14.52 -1.61,-0.63 -3.22,-1.26 -4.84,-1.88zm121.35 -1.48l24.94 -43.41 17.83 -27.75c11.17,-16.61 22.33,-33.2 33.5,-49.81 10.06,-17.16 25.51,-39.96 46.14,-58.75 1.51,-1.37 19.26,-17.21 34.43,-15.96 3.35,0.27 5.35,1.29 6.66,2.61 4.59,4.65 1.81,14.08 0,20.02 -4.42,14.43 -11.63,23.22 -11.63,23.22 -19.07,23.25 -34.26,49.69 -54.92,71.55 -24.19,25.59 -49.23,52.44 -79.85,85.38l-25.65 22.76c-0.73,-1.42 -1.43,-3.56 -1.43,-4.98 0,-5.69 3.55,-13.52 9.98,-24.9zm133.31 0l24.94 -43.41 17.82 -27.75 33.5 -49.81c14.27,-20.63 57.74,-73.29 80.56,-74.7 2.72,-0.18 4.66,0.89 4.66,0.89 3.07,1.73 4.09,5.54 4.5,7.9 -0.24,2.65 -0.68,6.43 -1.62,10.87 -2.41,11.21 -6.57,19.51 -9.68,25.15 -12.43,22.53 -27.87,40.58 -27.87,40.58 -14.33,17.81 -30.07,36.23 -47.37,55.02 -21.24,23.02 -42.2,43.79 -62.37,62.37l-25.65 22.76c-0.72,-1.42 -1.43,-3.56 -1.43,-4.98 0,-5.69 3.56,-13.52 9.99,-24.9zm192.46 99.6c-0.38,-0.87 -1.19,-1.3 -1.41,-1.41 -3.31,-1.74 -9.92,3 -16.41,7.8 -4.32,3.23 -11.81,8.84 -19.44,13.98 -6.89,4.63 -10.64,6.69 -13.35,5.23 -2,-1.06 -2.86,-3.56 -2.86,-4.98 0,-8.52 9.27,-21.35 11.41,-26.32 2.15,-3.55 2.86,-9.25 2.86,-11.39 0,-4.98 -2.13,-4.98 -5.7,-7.82 -7.84,0 -11.41,-1.43 -12.83,-1.43 -2.15,-4.97 -5.7,-12.79 -15.69,-12.79 -5.7,0 -16.4,2.83 -16.4,9.95 0,16.37 20.69,12.09 20.69,19.21 0,7.12 -19.26,22.75 -22.82,26.32 -10.69,9.25 -18.53,11.38 -26.38,11.38 -0.74,-0.12 -3.73,-0.71 -5.73,-3.41 -1.93,-2.64 -2.18,-6.25 -0.68,-9.39 6.41,-25.63 32.07,-32.73 32.07,-39.85 0,-5.68 -4.98,-7.82 -9.26,-7.82 -20.68,0 -42.07,12.08 -62.03,24.18 -4.85,3.23 -12.01,7.39 -17.31,11.02 -3.41,1.5 -7.21,3.49 -7.63,3.91 -4.35,2.52 -14.63,8.44 -25.06,14.26 -1.67,0.94 -4.34,2.43 -8.07,4.06 -2.23,0.96 -4.74,1.77 -12.49,4.46l-2.15 0c-4.98,0 -4.98,-0.72 -5.71,-7.83 4.28,-28.46 15.69,-49.81 34.22,-72.57 31.27,-26.26 65.01,-57.87 98.94,-95.58 23.05,-25.6 43.19,-50.66 60.75,-74.46 11.41,-19.23 30.66,-37.02 29.22,-60.5 7.84,-9.24 11.41,-10.66 11.41,-12.8 0,-7.31 -3.78,-12.43 -4.52,-13.18 -4.16,-4.29 -9.51,-4.89 -14.01,-5.33 -5.66,-0.53 -13.6,-0.03 -24.9,5.3 -11.94,5.64 -19.49,13.36 -22.16,15.35 -57.74,42.68 -114.77,141.59 -153.27,207.75l-24.96 42.69 -1.42 2.86 -29.94 22.04 -12.83 7.84c-13.18,8.22 -19.23,11.22 -21.98,13.24 -2.24,1.1 -4.09,2.11 -4.39,2.4l-12.11 7.83c-26.39,12.81 -14.98,8.55 -33.51,14.95l-2.15 0c-4.98,0 -4.98,-0.72 -5.7,-7.83 4.28,-28.46 15.68,-49.81 34.22,-72.57 34.22,-32 69.15,-61.89 98.37,-96.77 20.68,-24.18 40.64,-49.09 61.31,-73.28 11.41,-19.23 30.67,-37.02 29.24,-60.5 7.84,-9.24 11.41,-10.66 11.41,-12.8 0,-7.31 -3.8,-12.43 -4.52,-13.18 -4.11,-4.23 -9.34,-4.85 -14.03,-5.33 -10.82,-1.08 -19.78,2.59 -24.91,5.3 -7.4,4.79 -14.78,9.89 -22.14,15.35 -80.11,59.45 -126.17,138.9 -153.27,207.75l-24.96 42.69 -1.43 2.86 -29.93 22.04 -12.84 7.84c-16.64,10.37 -21.91,12.43 -23.53,14.71 -0.46,0.3 -0.94,0.62 -1.42,0.93 -15.91,10.48 -22.99,16.41 -32.78,16.38 -3.71,-0.01 -5.52,-0.86 -6.41,-2.15 -2.07,-2.89 0.5,-7.99 2.06,-10.95 6.22,-11.98 11.91,-22.42 16.16,-30.14 5.32,-9.31 10.65,-18.61 15.98,-27.91 0,-4.27 -1.43,-4.98 -4.28,-4.98l-3.56 0c-7.07,3.42 -14.27,7.1 -21.57,11.04 -19.87,10.7 -37.84,21.91 -53.99,33.09l-21.38 14.92c-2.07,1.16 -2.46,3.68 -1.43,4.98 0.99,1.25 3.36,1.51 4.99,0 7.59,-4.42 15.18,-8.83 22.77,-13.26 7.38,-3.4 14.76,-6.79 22.14,-10.2 4.1,-1.57 8.02,-0.33 9.27,2.12 0.83,1.67 0.27,3.52 0,4.28 -5.38,9.94 -9.99,18.75 -13.81,26.15 -8.59,16.63 -11.88,23.64 -9.01,27.21 1.85,2.3 5.57,2.42 8.56,2.14 15.69,0 27.11,-7.12 39.92,-16.37l17.12 -12.09 7.84 -4.98c4.8,-2.91 8.64,-5.45 11.51,-7.56 5.14,-3.06 11.05,-7.85 13.43,-8.81l13.55 -6.4c2.85,-1.42 7.13,-2.12 10.69,-2.12 3.56,0 6.41,1.43 6.41,6.4l-6.41 20.63c-2.15,6.39 -2.85,12.8 -2.85,19.2l0 0.72c0,3.56 0,7.12 1.42,8.54 3.56,2.84 7.14,4.27 11.41,4.27 17.83,0 49.9,-15.66 73.44,-34.16 2.26,-2.02 4.79,-4.02 7.12,-5.91 5.47,-1.44 15.27,-9.86 18.52,-11.17l13.55 -6.4c2.85,-1.42 7.13,-2.12 10.7,-2.12 3.55,0 6.41,1.43 6.41,6.4l-6.41 20.63c-2.15,6.39 -2.86,12.8 -2.86,19.2l0 0.72c0,3.56 0,7.12 1.43,8.54 3.56,2.84 7.13,4.27 11.41,4.27 17.82,0 49.9,-15.66 73.43,-34.16 2.78,-2.47 5.97,-4.94 8.69,-7.19l12.69 -6.33 13.55 -6.39 7.84 -3.57c2.14,0.72 5.7,0 5.7,2.86 0,12.8 -12.12,27.03 -12.12,39.83 0,3.4 -0.54,8.78 2.88,12 2.47,2.33 6.3,3.01 12.08,2.24 13.07,-1.76 21.75,-9.01 39.47,-22 4.34,-3.18 10.85,-7.9 18.99,-13.59l3.56 -2.12c0.17,1 0.29,2.5 0,4.26 -0.41,2.47 -1.47,4.28 -3.56,7.82 -1.85,3.14 -2.49,3.69 -3.04,5.61 -0.15,0.5 -0.57,2.05 -0.53,4.36 0.02,2.25 0.12,8.73 4.28,12.09 3.57,2.92 8.44,2.09 12.47,1.38 4.42,-0.76 8.26,-2.47 15.34,-7.08 6.01,-3.92 9.01,-5.88 13.99,-10.27 6.28,-5.52 16.66,-13.49 34.47,-23.89 0.25,-0.23 3.99,-3.81 2.85,-6.4zm-1070.08 175.98c-7.17,0 -13.22,3.01 -18.12,9.03l-139.29 185.37 -138.72 -185.37c-2.26,-2.62 -5.01,-4.8 -8.21,-6.5 -3.22,-1.68 -6.51,-2.54 -9.92,-2.54 -6.42,0 -11.98,2.26 -16.7,6.78 -4.72,4.53 -7.08,9.8 -7.08,15.83l0 350.38c0,6.03 2.28,11.3 6.81,15.83 4.53,4.52 10,6.78 16.41,6.78 6.41,0 11.98,-2.27 16.71,-6.78 4.71,-4.53 7.07,-9.8 7.07,-15.83l0 -280.3 114.94 153.7c2.27,3.02 5.1,5.38 8.5,7.07 3.4,1.71 6.79,2.55 10.19,2.55 8.29,0 14.53,-3.19 18.69,-9.62l116.07 -153.7 0 280.3c0,6.03 2.27,11.3 6.79,15.83 4.53,4.52 9.81,6.78 15.85,6.78 6.41,0 11.9,-2.27 16.43,-6.78 4.52,-4.53 6.78,-9.8 6.78,-15.83l0 -350.38c0,-6.03 -2.17,-11.3 -6.5,-15.83 -4.35,-4.52 -9.92,-6.78 -16.71,-6.78zm164.2 262.23l70.77 -177.45 69.64 177.45 -140.41 0zm92.29 -246.97l0 0.57c-1.9,-4.15 -4.9,-7.82 -9.07,-11.02 -4.15,-3.19 -8.29,-4.8 -12.44,-4.8 -4.91,0 -9.34,1.61 -13.31,4.8 -3.96,3.21 -6.89,6.88 -8.77,11.02l0 -0.57 -29.44 71.77 -110.41 276.92c-0.76,3.02 -1.14,6.03 -1.14,9.03 0,5.28 2.08,10.37 6.23,15.26 4.15,4.9 9.63,7.34 16.42,7.34 3.77,0 7.83,-1.6 12.18,-4.79 4.32,-3.21 7.44,-6.69 9.33,-10.45 4.53,-10.93 9.44,-22.9 14.73,-35.9 5.28,-12.99 9.99,-24.96 14.15,-35.89l178.92 0 28.88 71.79 0 -0.57c1.89,4.14 5.01,7.82 9.36,11.02 4.32,3.19 8.57,4.79 12.73,4.79 7.17,0 12.74,-2.33 16.71,-7.07 3.96,-4.7 5.94,-9.88 5.94,-15.53 0,-3 -0.37,-6.02 -1.13,-9.03l-139.85 -348.7zm392.1 117.27c-0.2,2.82 -0.67,6.41 -1.43,10.74 -0.75,4.34 -1.9,9.05 -3.39,14.13 -1.51,5.09 -3.6,10.08 -6.23,14.98 -6.79,12.06 -16.04,21.3 -27.75,27.7 -11.7,6.4 -26.04,9.59 -43.02,9.59l-72.47 0 0 -163.32 72.47 0c4.15,0 8.49,0.38 13.03,1.13 4.15,0.76 8.68,1.79 13.57,3.11 4.91,1.32 10,3.3 15.29,5.94 26.8,13.95 40.21,37.68 40.21,71.2 0,0.38 -0.11,1.98 -0.29,4.8zm30.85 59.07c3.78,-7.54 6.7,-14.98 8.78,-22.32 2.07,-7.35 3.68,-13.94 4.81,-19.78 1.14,-5.84 1.79,-10.64 1.98,-14.41 0.19,-3.77 0.29,-6.22 0.29,-7.35 0,-24.87 -5.86,-46.99 -17.56,-66.41 -11.7,-19.39 -27.74,-34.55 -48.13,-45.48l0.57 0c-15.5,-7.15 -29.45,-11.59 -41.91,-13.29 -12.46,-1.69 -19.63,-2.54 -21.51,-2.54l-95.69 0c-6.43,0 -11.8,2.26 -16.13,6.78 -4.36,4.53 -6.52,9.8 -6.52,15.83l0 350.38c0,6.03 2.16,11.3 6.52,15.83 4.32,4.52 9.7,6.77 16.13,6.77 6.41,0 11.89,-2.25 16.41,-6.77 4.54,-4.53 6.81,-9.8 6.81,-15.83l0 -116.98 77 0 80.96 128.85c4.15,7.16 10.95,10.73 20.39,10.73 4.53,0 8.28,-0.93 11.31,-2.82 3.41,-2.25 6.14,-5.27 8.22,-9.03 2.06,-3.78 3.11,-7.34 3.11,-10.74 0,-2.26 -0.38,-4.52 -1.13,-6.78 -0.76,-2.25 -1.51,-4.52 -2.27,-6.78l0.56 0.57 -71.34 -113.61c13.6,-7.52 25.39,-15.81 35.39,-24.86 10.01,-9.03 17.65,-19.01 22.93,-29.94zm161.37 70.64l70.79 -177.45 69.63 177.45 -140.41 0zm92.3 -246.97l0 0.57c-1.9,-4.15 -4.91,-7.82 -9.07,-11.02 -4.15,-3.19 -8.31,-4.8 -12.44,-4.8 -4.92,0 -9.35,1.61 -13.31,4.8 -3.97,3.21 -6.9,6.88 -8.78,11.02l0 -0.57 -29.44 71.77 -110.41 276.92c-0.76,3.02 -1.13,6.03 -1.13,9.03 0,5.28 2.07,10.37 6.23,15.26 4.15,4.9 9.62,7.34 16.41,7.34 3.78,0 7.84,-1.6 12.18,-4.79 4.34,-3.21 7.45,-6.69 9.34,-10.45 4.53,-10.93 9.43,-22.9 14.72,-35.9 5.28,-12.99 10,-24.96 14.16,-35.89l178.92 0 28.87 71.79 0 -0.57c1.9,4.14 5.01,7.82 9.36,11.02 4.34,3.19 8.57,4.79 12.74,4.79 7.16,0 12.73,-2.33 16.7,-7.07 3.96,-4.7 5.94,-9.88 5.94,-15.53 0,-3 -0.37,-6.02 -1.11,-9.03l-139.86 -348.7zm372.57 333.99l-133.64 0 0 -326.63c0,-6.03 -2.25,-11.3 -6.78,-15.83 -4.54,-4.52 -10.01,-6.78 -16.44,-6.78 -6.41,0 -11.98,2.26 -16.7,6.78 -4.72,4.53 -7.07,9.8 -7.07,15.83l0 350.38c0,6.03 2.35,11.3 7.07,15.83 4.72,4.52 10.29,6.77 16.7,6.77l156.86 0c6.78,0 12.54,-2.25 17.26,-6.77 4.72,-4.53 7.08,-9.8 7.08,-15.83 0,-6.78 -2.36,-12.43 -7.08,-16.95 -4.72,-4.53 -10.48,-6.79 -17.26,-6.79zm104.73 -349.24c-6.04,0 -11.32,2.26 -15.85,6.78 -4.53,4.53 -6.79,9.8 -6.79,15.83l0 350.38c0,6.03 2.26,11.3 6.79,15.83 4.53,4.52 9.81,6.78 15.85,6.78 6.43,0 11.98,-2.27 16.7,-6.78 4.72,-4.53 7.09,-9.8 7.09,-15.83l0 -350.38c0,-6.03 -2.37,-11.3 -7.09,-15.83 -4.72,-4.52 -10.27,-6.78 -16.7,-6.78zm315.38 237.07c-5.67,-9.61 -12.47,-18.37 -20.38,-26.28 -7.94,-7.9 -16.42,-14.98 -25.49,-21.18 -9.05,-6.23 -17.75,-11.5 -26.03,-15.83 -8.32,-4.34 -15.67,-7.83 -22.1,-10.45 -6.43,-2.65 -10.95,-4.34 -13.57,-5.1l-0.57 -1.12c-6.8,-2.62 -13.3,-5.57 -19.53,-8.76 -6.22,-3.21 -11.89,-7.07 -16.99,-11.58 -5.08,-4.53 -9.14,-9.99 -12.16,-16.4 -3.04,-6.39 -4.54,-14.3 -4.54,-23.73l0 -2.25c0.37,-14.32 6.6,-25.99 18.68,-35.04 12.09,-9.04 27.2,-13.57 45.3,-13.57l4.54 0c6.41,0.4 13.11,1.91 20.09,4.53 6.97,2.65 13.11,5.85 18.4,9.6 1.89,1.9 4.16,3.11 6.79,3.68 2.64,0.55 4.9,0.83 6.79,0.83 7.56,0 13.78,-3 18.68,-9.03 3.79,-3.75 5.67,-8.49 5.67,-14.14 0,-2.62 -1.23,-5.73 -3.68,-9.32 -2.47,-3.58 -4.63,-6.69 -6.51,-9.32 -9.44,-6.78 -19.73,-12.23 -30.86,-16.4 -11.15,-4.14 -22.18,-6.4 -33.14,-6.77l-5.65 0c-14.35,0 -27.95,2.07 -40.77,6.21 -12.84,4.16 -24.16,10.18 -33.98,18.09 -11.31,8.67 -20,18.84 -26.03,30.5 -6.04,11.69 -9.44,24.3 -10.2,37.88l0 4.52c0,48.98 26.98,83.26 80.96,102.86 1.14,0 3.22,0.57 6.24,1.69l-0.57 -0.56c6.41,1.9 14.34,5.08 23.78,9.6 9.44,4.52 18.59,9.88 27.46,16.12 8.87,6.2 16.6,13.18 23.22,20.9 6.6,7.72 10.28,15.92 11.05,24.58l0 2.26c0,19.59 -7.57,36.55 -22.66,50.86 -14.72,15.46 -34.54,23.18 -59.45,23.18l-2.82 0c-14.35,-0.38 -27.28,-4.24 -38.79,-11.58 -11.51,-7.34 -20.29,-17.62 -26.33,-30.81 -1.89,-4.14 -4.81,-7.34 -8.78,-9.6 -3.96,-2.25 -8.2,-3.39 -12.74,-3.39 -3.76,0 -6.04,0.37 -6.78,1.13 -5.3,2.25 -9.26,5.46 -11.9,9.59 -2.65,4.16 -3.96,8.31 -3.96,12.43 0,4.16 0.57,7.37 1.69,9.62 9.43,20.72 23.58,37.21 42.46,49.45 18.88,12.25 39.82,18.75 62.85,19.49l4.53 0c18.13,0 35.29,-3.18 51.52,-9.59 16.23,-6.41 30.39,-15.64 42.46,-27.7 10.95,-10.93 19.45,-23.64 25.49,-38.15 6.02,-14.49 9.05,-29.46 9.05,-44.92l0 -5.65c-1.51,-11.3 -5.09,-21.76 -10.75,-31.37z"/>
  <path class="fil0" d="M1712.74 811.13c-0.63,-0.29 -1.24,-0.58 -1.87,-0.86 0.34,0.24 0.7,0.5 1.07,0.75 0.28,0.05 0.55,0.08 0.8,0.11zm-676 446.01c-20.63,23.16 -44.74,38.52 -59.93,46.99 68.81,71.81 127.35,67.16 144.9,174.65 11.74,-12.51 78.86,-86.37 69.39,-189.78 -5.48,-59.78 -34.18,-103.4 -46.03,-119.67 -24.11,-33.11 -51.51,-53.31 -69.48,-64.5 4.84,22.04 11.58,68.89 -11.23,113.35 -9.44,18.38 -22.01,32.66 -27.63,38.95zm-36.73 -370.3c20.46,-4.91 63.93,-19.01 98.46,-59.91 3.42,8.34 6.83,16.7 10.24,25.05 -52.93,27.34 -107.79,34.74 -108.69,34.86zm73.94 -331.57l1.24 0c30.36,36.42 34.03,75.99 7.29,115.75 -7.93,-22.27 -15.85,-44.55 -23.79,-66.83 5.59,-16.91 10.67,-33.17 15.25,-48.93zm-65.32 98.82c-12.4,35.14 -22.32,65.74 -29.36,93.85l-1.24 0c-7.02,-28.93 -16.53,-59.53 -28.12,-93.85l-13.59 -38.53 23.05 -65.8c6.55,-19.98 12.11,-39.96 17.15,-59.47l1 0c5.05,19.02 10.1,38.52 17.66,59.96l25.25 71.73 -11.82 32.11zm-70.71 227.74c-1.49,-0.43 -3.07,-0.92 -4.77,-1.43 -11.43,-3.58 -45.97,-14.41 -81.19,-39.98l9.03 -22.56c14.92,21.33 41.75,42.66 76.92,63.97zm-53.73 -326.55l0.82 0c3.71,15.59 8.15,31.84 13.19,48.76l-23.64 66.7c-21.27,-40.55 -20.59,-79.98 9.62,-115.45zm965.72 -48.01c-19.95,5.85 -24.78,2.3 -42.02,7.95 -9.51,3.13 -34.89,11.43 -44.68,33.53 -2.11,4.78 -7.44,16.8 -1.44,26.7 4.03,6.63 12.12,10.62 21.62,11.07 -32.98,14.64 -70.68,4.36 -96.43,-27.5 -9.18,-11.34 -20.98,-23.49 -31.17,-31.8 -24,-19.55 -56.9,-36.98 -84.19,-42.5 -10.35,-2.08 -19.77,-3.24 -27.66,-3.85 22.23,-17.92 37.19,-41.69 53.87,-72.44 33.87,-62.45 103.2,-90.09 164.75,-61.56 -5.48,1.09 -11.63,3.49 -14.79,8.72 -7.46,12.35 5.42,34.31 20.87,43 4.95,2.78 17,4.23 40.89,7.03 18.22,2.13 18.84,1.8 24.25,2.79 6.35,1.17 14.2,3.22 23.16,7.12 0.02,0.02 0.05,0.04 0.07,0.06l-0.02 -0.04c6.61,2.87 13.84,6.72 21.49,11.96 -5.77,-7.22 -13.94,-18.73 -20.78,-34.23 -8.37,-18.9 -5.49,-24.12 -13.29,-40.38 -4.31,-8.99 -15.8,-32.92 -38.87,-39.7 -4.98,-1.47 -17.53,-5.16 -26.49,2.05 -6.13,4.91 -8.99,13.61 -8.06,23.24 -9.03,-6.82 -19.29,-11.96 -30.44,-14.99 -47.53,-12.92 -87.51,2.29 -128.32,25.99 -0.57,-12.84 1.17,-26.01 -0.5,-38.9 -9.54,-74.21 -48.67,-143.58 -129.96,-155.03 -48.04,-6.76 -91.95,28.21 -90.57,79.15 0.64,24.61 11.87,43.09 33.51,54.46 7.28,3.81 15.13,6.2 23.04,7.07 0.56,1.09 1.29,2.15 2.23,3.08 4.73,4.77 13.15,5.65 21.31,2.29 0.28,2.66 1.57,12.9 8.31,16.05 8.93,4.18 22.91,-6.14 27.7,-17.25 1.54,-3.55 1.66,-11.83 1.86,-28.25 0.15,-12.52 -0.13,-12.93 0.17,-16.67 0.57,-7.63 2.68,-18.56 9.76,-31.69 -4.49,4.44 -11.7,10.79 -21.74,16.54 -12.25,7.03 -15.99,5.45 -26.47,11.91 -5.79,3.57 -21.21,13.08 -24.17,29.22 -0.12,0.61 -0.26,1.41 -0.38,2.31 -1.81,-0.33 -3.6,-0.71 -5.35,-1.07 -17.4,-3.77 -34.23,-20.57 -35.61,-37.44 -2.52,-30.94 12.74,-58.42 44.49,-66.6 42.3,-10.9 81.51,10.05 104.54,54.17 33.36,63.89 41.6,173.33 -34.03,222.45 -16.86,10.95 -42.12,14.95 -61.27,21.05 4.03,-53.56 0.49,-107.98 -43.91,-141.87 -22.15,-16.93 -37.39,-18.81 -61.42,-18.09 -0.47,-0.41 -0.93,-0.8 -1.42,-1.18 3.47,-2.43 16.7,-12.24 15.84,-24.07 -1.13,-15.66 -26.39,-27.06 -45.59,-25.05 -6.14,0.63 -17.76,6.92 -40.72,19.45 -17.54,9.57 -17.88,10.26 -23.3,12.78 -11.08,5.14 -27.9,10.74 -51.7,11.14 9.66,2.8 24.15,7.87 39.97,17.32 19.32,11.54 20.06,17.99 37.21,27.52 9.48,5.27 34.73,19.31 59.47,10.82 5.35,-1.82 18.82,-6.44 22.26,-18.48 2.35,-8.19 -0.57,-17.71 -7.43,-25.67 9.31,3.68 18.28,7.25 27.34,11.26 35.96,16.01 53.96,55.88 55.2,92.12 0.55,16.1 -3.31,31.87 -10.14,40.56 -11.88,15.12 -33.32,15.3 -42.55,15.7 -61.36,3.55 -107.66,30.88 -154.45,8.49 -21.1,-23.46 -39.54,-35.87 -62.26,-51.26 -25.98,-17.59 -48.07,-26.1 -74.35,-38.76 -23.96,-11.52 -48.03,-20.38 -72.8,-30.01 -13.4,-8.19 -23.58,-17.63 -30.57,-32.79 -0.06,-0.14 -1.19,-2.74 -1.87,-5.29 -7.52,-27.82 -2.56,-67.43 23.93,-84.59 9,-5.82 19.36,-9.3 29.19,-13.18 -1.38,5.41 -2.54,14.06 2.14,19.7 8.3,10.03 30.83,5.59 42.83,-5 3.83,-3.38 8.66,-13.2 18.14,-32.73 7.25,-14.89 7.15,-15.52 9.6,-19.83 4.99,-8.78 13.67,-20.66 29.54,-32.38 -7.88,2.78 -20.08,6.32 -35.33,7.53 -18.59,1.49 -22.18,-2.5 -38.35,-0.69 -8.93,0.99 -32.74,3.66 -45.36,21.28 -2.73,3.8 -9.6,13.4 -6.15,23.18 2.22,6.25 8.1,11.06 15.79,13.34 -48.79,9.58 -68.09,41.11 -82.6,88.64 -56.93,-125.81 76.6,-340.87 206.93,-267.23 -6,3.08 -14.17,8.69 -15.62,17.04 -2.67,15.48 19.09,32.63 38.2,35.3 6.11,0.86 18.9,-2.44 44.22,-9.06 19.33,-5.06 19.82,-5.66 25.7,-6.79 11.99,-2.32 29.68,-3.69 52.87,1.65 -8.71,-5.03 -21.55,-13.46 -34.64,-26.43 -15.96,-15.87 -15.12,-22.29 -29.47,-35.69 -7.93,-7.39 -29.07,-27.1 -55.11,-24.83 -5.64,0.49 -19.81,1.73 -26.07,12.57 -5.2,9.03 -3.24,21.9 4.82,32.86 -78.08,-57.89 -172.79,-0.76 -226.18,66.93 -22.56,-50.47 -81.18,-63.85 -130.04,-49.56 5.05,-4.45 12.06,-12.22 11.29,-21 -1.4,-15.64 -26.83,-26.64 -45.99,-24.31 -6.11,0.74 -17.63,7.21 -40.4,20.12 -17.39,9.84 -17.71,10.55 -23.1,13.15 -10.99,5.33 -27.72,11.19 -51.51,11.99 9.72,2.62 24.28,7.46 40.26,16.66 19.5,11.22 20.33,17.65 37.64,26.91 9.56,5.11 35.05,18.75 59.65,9.87 5.31,-1.93 18.7,-6.76 21.94,-18.86 2.16,-8.01 -0.68,-17.2 -7.28,-24.92 64.94,-9.83 127.99,14.8 102.13,90.61 -7.48,21.91 -10.01,37.81 -14.3,52.19 -10.08,33.84 -3.52,81.35 2.83,107.67 5.44,22.5 18.21,43.84 23.17,51.84 7.03,11.38 14.69,20.65 21.68,29.3 9.67,11.95 18.41,21.53 25,28.42 9.01,-0.44 22.04,-0.56 37.53,1.26 100.14,11.74 159.21,87.22 162.16,91.11 44.45,58.69 46.78,120.73 46.91,136.82 0.36,49.2 -13.65,93.14 -38.2,128.87 -11.47,16.67 -26.15,30.58 -42.23,42.14 -4.89,-13.72 -9.77,-27.45 -14.66,-41.18 53.61,-75.55 51.55,-218.96 12.87,-301.26 -26.68,9.63 -53.38,19.27 -80.07,28.91l-15.14 41.11c-12.78,-35.89 -25.55,-71.78 -38.33,-107.66l-52.96 0 -36.54 103.11 -12.9 -36.55 -73.84 -20.78c-40.39,98.38 -36.65,198.96 4.6,289.09 -3.33,9.38 -6.65,18.77 -9.98,28.15 -13.07,-13.22 -25.33,-28.91 -35.48,-47.58 -17.09,-31.37 -26.3,-68.04 -25.9,-109.65 0.19,-17.65 1.35,-72.51 37.46,-125.96 51.99,-76.94 136.86,-92.51 153.53,-95.23 -7.92,-8.19 -16.11,-17.32 -24.34,-27.47 -5.9,-7.27 -11.29,-14.41 -16.21,-21.32 -31.63,10.59 -89.11,34.53 -135.47,85.76 -11,12.17 -28.55,34.1 -44.16,67.24 -9.02,19.14 -15.9,43.44 -16.38,65.4 -15.9,-15.74 -31.13,-30.02 -48.95,-44.07 -17.53,-13.84 -32.9,-18.11 -50.68,-37.23 -7.25,-7.78 -27.28,-37.69 -23.46,-53.41 1.39,3.86 3.67,7.65 7.47,9.64 11,5.73 29.17,-6.5 35.79,-20.24 2.12,-4.39 2.72,-14.79 3.85,-35.46 0.86,-15.75 0.53,-16.27 1.09,-20.97 1.15,-9.57 4.38,-23.21 13.99,-39.37 -5.89,5.33 -15.31,12.97 -28.26,19.67 -15.78,8.2 -20.4,6.01 -33.94,13.57 -7.48,4.17 -27.41,15.32 -32,35.47 -0.99,4.36 -3.48,15.31 3.18,22.65 4.38,4.8 11.61,6.83 19.48,5.79 -2.71,17.88 -2.49,34.47 0.56,52.81 -49.57,-27.77 -97.84,-42.56 -144.65,-78.13 -52.88,-40.19 -66.99,-90.29 -46.82,-157.39 14.47,-48.11 46.46,-83.36 99.47,-92.58 49.7,-8.64 81.5,3.87 124.93,26.3 5.4,2.79 10.59,4.71 15.64,7.12 -3.21,0.91 -6.26,2.5 -8.32,5.25 -7.46,9.93 1.66,29.82 14.14,38.6 3.98,2.8 14.17,5.1 34.36,9.57 15.41,3.41 15.97,3.17 20.51,4.48 9.26,2.69 22.19,8.1 36.58,20.23 -4.3,-6.69 -10.3,-17.24 -14.81,-31.1 -5.52,-16.9 -2.6,-21.11 -7.87,-35.69 -2.91,-8.07 -10.66,-29.53 -29.8,-37.34 -4.14,-1.69 -14.55,-5.93 -22.85,-0.55 -6.2,4.01 -9.46,12.24 -8.84,21.54 -11.08,-7.95 -22.01,-14.56 -33.99,-21.32 -39.41,-22.23 -65.11,-34.28 -112.27,-32.48 -44.13,1.68 -82.15,20.08 -109.23,55.7 -40.99,53.93 -52.28,110.83 -32.77,174.71 7.53,24.64 21.61,41.48 32.88,63.69 -63.98,6.44 -168.64,23.73 -170.6,105.31 -3.97,-3.36 -9.8,-6.97 -15.77,-5.85 -12.19,2.29 -18.9,23.14 -15.61,38.02 1.04,4.77 7.01,13.33 18.89,30.26 9.07,12.92 9.64,13.12 12.11,17.16 5.02,8.22 10.91,20.95 13.35,39.59 1.34,-7.83 4.03,-19.65 10.04,-32.92 7.34,-16.21 12.33,-17.35 18.31,-31.67 3.29,-7.91 12.06,-28.98 3.21,-47.66 -1.91,-4.04 -6.74,-14.2 -16.5,-15.84 -4.86,-0.8 -10.02,0.66 -14.66,3.88 17.79,-49.74 48.73,-62.86 99.48,-72.1 37.88,-6.91 79.73,-1.31 114.93,15.64 -21.42,9.15 -44.8,14.74 -65.37,26.32 -20.56,11.6 -40.18,27.58 -53.75,46.48 -13.56,18.9 -20.77,41 -22.06,63.1 -1.15,19.7 4.85,35.25 14.04,51.08 -4.37,0.51 -8.97,2 -11.91,5.59 -8.06,9.86 0.47,30.63 12.87,40.12 3.97,3.04 14.29,5.81 34.79,11.24 15.65,4.14 16.23,3.91 20.82,5.45 9.38,3.15 22.38,9.21 36.63,22.22 -4.14,-7.02 -9.83,-18.06 -13.89,-32.44 -4.95,-17.53 -1.79,-21.74 -6.57,-36.89 -2.65,-8.38 -9.69,-30.69 -28.96,-39.48 -4.18,-1.9 -14.66,-6.68 -23.38,-1.51 -4.42,2.62 -7.52,7.28 -9,12.98 -4.47,-12.66 -8.14,-21.32 -6.79,-36.1 3.62,-39.71 31.08,-63.31 62.92,-83.81 -0.6,3.06 -0.92,9.12 -1.39,12.11 -7.29,48.07 11.75,92.34 58.55,109.84 31.8,11.88 53.45,4.63 76.8,-18.03 18.45,-17.9 17.59,-44.49 7.7,-66.5 -6.63,-14.77 -20.99,-23.93 -36.97,-24.08 -2.25,-0.02 -4.29,0.2 -6.27,0.57 -0.2,-1.78 -0.76,-3.5 -1.91,-4.96 -5.22,-6.66 -19.94,-4.16 -27.93,2.51 -2.55,2.13 -5.85,8.44 -12.36,20.95 -4.96,9.56 -4.9,9.96 -6.57,12.73 -3.4,5.63 -9.25,13.2 -19.76,20.55 5.16,-1.66 13.16,-3.75 23.08,-4.29 12.12,-0.67 14.39,2 24.92,1.11 5.83,-0.5 21.33,-1.83 29.86,-13.06 1.83,-2.43 6.46,-8.54 4.39,-14.97 -1.79,-5.49 -7.9,-9.42 -15.47,-10.01 0.19,-0.5 0.51,-1.37 0.82,-2.47 14.04,-1.95 21.93,2.11 30.44,15.21 14.21,21.88 11.16,44.5 -10.12,60.46 -25.64,19.24 -52.44,15.75 -74.89,-6.23 -24.21,-23.7 -36.03,-57.57 -13.7,-86.99 23.44,-30.88 44.21,-39.89 82.7,-26.83 72.14,24.46 133.94,55.16 167.57,128.61 8.4,18.33 12.15,39.08 18.12,58.4 -31.17,-16.97 -70.14,-36.3 -106.33,-26.66 1.58,-5.84 2.63,-14.08 -1.69,-19.92 -8.49,-11.47 -33.4,-7.94 -47.14,2.93 -4.4,3.48 -10.25,13.93 -21.79,34.72 -8.79,15.87 -8.72,16.55 -11.66,21.12 -5.99,9.32 -16.18,21.79 -34.24,33.67 8.77,-2.56 22.35,-5.71 39.08,-6.15 20.42,-0.54 24.11,4.05 41.9,3.03 9.83,-0.56 36.02,-2.07 50.87,-20.58 3.22,-4.01 11.3,-14.09 8.09,-24.99 -1.43,-4.85 -4.84,-9.05 -9.58,-12.15 58.91,-9.83 89.23,48.19 107.77,92.37 33.66,80.26 88.78,121.38 146.55,180.42 71.87,73.46 78,115.19 96.46,211.09 5.16,26.84 10.33,53.8 25.09,93.94 27.16,-14.61 52.62,-34.16 66.95,-62.1 20.64,-40.21 25.88,-86.48 20.82,-130.56 -2.73,-23.85 1,-38.03 17.05,-55.05 36.14,-38.34 168.11,-71.99 220.19,-60.25 68.68,15.48 63.21,94.63 46.07,150.15 -6.99,22.56 -22.99,66.5 -47.22,78.72 -31.26,15.76 -61.87,20.13 -87.22,-5.35 -19.95,-20.06 -19.47,-35.06 -2.61,-53.99 -1.01,2.71 -1.49,5.61 -0.81,8.52 2.81,12.1 23.92,17.89 38.68,13.96 4.69,-1.24 13,-7.57 29.39,-20.18 12.51,-9.63 12.69,-10.21 16.63,-12.84 8.01,-5.38 20.45,-11.8 39,-15.05 -7.9,-0.99 -19.83,-3.17 -33.35,-8.6 -16.49,-6.64 -17.85,-11.57 -32.42,-16.91 -8.04,-2.96 -29.49,-10.81 -47.76,-1.15 -3.96,2.09 -13.9,7.34 -15.1,17.15 -0.83,6.71 2.62,13.78 8.96,19.16 -17.67,8.13 -29.99,25.78 -26.72,45.6 1.43,8.58 2.21,17.6 7.63,24.46 21.92,27.66 41.28,38.23 77.86,33.6 29.66,-3.76 54.75,-22.66 71.08,-49.2 19.63,-31.87 33.03,-70.46 35.7,-108.98 1.61,-23.03 3.05,-48.27 2.3,-71.56 32.73,31.19 58.62,71.08 78.73,111.24 13.09,26.13 19.07,61.23 14.77,90.26 -2.93,-4.94 -7.89,-11.18 -14.78,-12.07 -13.37,-1.72 -27.3,17.57 -28.91,34.06 -0.51,5.28 2.79,16.13 9.38,37.62 5.04,16.4 5.56,16.79 6.76,21.8 1.31,5.5 2.43,12.44 2.61,20.81 -0.18,1.06 -0.37,2.11 -0.57,3.16 0.19,-0.36 0.4,-0.69 0.6,-1.03 0.01,6.63 -0.57,14.11 -2.12,22.47 4,-7.65 10.75,-18.96 21.43,-30.68 13.01,-14.27 18.57,-13.78 29.53,-26.57 6.06,-7.08 22.2,-25.92 19.32,-48.19 -0.63,-4.82 -2.19,-16.94 -11.74,-21.91 -5,-2.61 -11.23,-2.72 -17.41,-0.61 -0.89,0.07 -1.77,0.24 -2.58,0.56 2.37,-10.34 3.21,-23.01 2.76,-33.35 -2.49,-58.94 -33.63,-105.45 -58.7,-156.74 2.89,3.94 12.36,4.3 16.89,7.3 38.83,25.78 95.76,56.67 135.5,73.57 104.32,44.37 162.47,-22.19 196.81,-106.75 14.74,-36.31 11.43,-64.32 -5.76,-96.79 0,-0.13 1.07,-0.31 1.67,-1.15 3.34,-0.45 6.89,-1.65 9.08,-4.45 5.94,-7.59 -0.82,-23.18 -10.37,-30.19 -3.06,-2.24 -10.93,-4.18 -26.53,-7.96 -11.91,-2.89 -12.33,-2.72 -15.85,-3.81 -7.15,-2.23 -17.1,-6.63 -28.09,-16.26 3.25,5.27 7.75,13.53 11.03,24.36 4.01,13.21 1.69,16.44 5.55,27.84 2.13,6.29 7.8,23.1 22.54,29.45 3.19,1.37 11.21,4.83 17.74,0.77 1.64,-1.01 3.03,-2.42 4.14,-4.1 3.9,13.4 5.86,28.55 5.13,41.52 -1.9,33.31 -17.04,63.4 -39.73,86.23 -35.59,35.83 -73.81,56.05 -122.34,32.66 40.14,-15.45 58.38,-74.49 54.86,-114.23 -2.46,-27.82 -15.85,-52.89 -33.63,-74.69 -0.06,-0.24 -0.12,-0.46 -0.19,-0.7 3.1,0.02 15.09,-0.16 19.61,-7.54 5.97,-9.75 -4.15,-27.22 -16.37,-34.18 -3.92,-2.2 -13.46,-3.42 -32.38,-5.74 -14.45,-1.79 -14.95,-1.51 -19.22,-2.32 -8.74,-1.66 -21.07,-5.48 -35.35,-15.35 4.55,5.77 10.98,14.91 16.33,27.23 6.56,15.03 4.24,19.15 10.36,32.09 3.39,7.14 12.38,26.17 30.63,31.64 3.95,1.19 13.88,4.17 21.02,-1.5 3.29,-2.6 5.4,-6.58 6.22,-11.24 5.73,11.83 12.19,27.41 14.41,39.21 7.39,39.14 4.14,75 -26.67,101.36 -25.33,21.66 -92.3,-16.17 -117.9,-27.96 -46.1,-21.25 -87.17,-52.95 -131.53,-74.31 51.07,-19.34 129.36,-119.02 121.27,-193.78 -9.45,-87.34 -78.66,-99.16 -138.37,-53.74 -25.18,19.17 -31.3,42.12 -27.01,68.36 -2.51,-0.52 -5.13,-0.55 -7.6,0.4 -10.68,4.1 -13.31,24.11 -7.87,37.08 1.74,4.15 8.57,10.92 22.16,24.3 10.36,10.23 10.92,10.31 13.81,13.56 5.91,6.65 13.36,17.2 18.66,33.72 -0.08,-7.33 0.41,-18.51 3.66,-31.53 3.97,-15.9 8.31,-17.77 11.35,-31.75 1.68,-7.71 6.16,-28.29 -4.97,-43.75 -2.41,-3.35 -8.46,-11.76 -17.58,-11.63 -5.25,0.08 -10.37,2.97 -14.3,7.76 -0.62,-35.1 17.26,-59.13 57.08,-61.99 44.3,-3.17 70.07,22.68 59.84,70.3 -10.64,49.54 -42.63,82.21 -78.85,113.53 -33.23,28.72 -71.96,34.15 -109.34,45 -82.37,23.93 -160.73,36.76 -228.75,90.6 -12.66,-24.07 -29.69,-51.52 -52.62,-79.65 -12.1,-14.82 -24.22,-27.87 -35.86,-39.26 -1.53,-0.4 -3.46,-0.91 -5.69,-1.54 -12.56,-72.96 -26.92,-123.74 -40.86,-159.83 5.96,-14.87 11.91,-29.75 17.87,-44.62l5.14 0 40.19 118.35 27.29 0 43.06 -118.35 4.9 0 16.98 41.56c-16.71,35.66 -35.36,88.24 -54.56,167.32l0 0.01c5.36,5.22 12.56,12.57 20.57,21.87 7.95,9.26 14.12,17.21 21.37,28.04 6.44,9.64 11.8,19.88 14.93,31.7 27.88,-13.87 38.53,-16.25 68.83,-34.48 49.4,-29.75 110.51,-73.28 136.37,-134.02 10.55,-24.79 19.19,-51.85 23.41,-81.15 4.19,-28.94 7.46,-53.49 5.65,-88.54 -0.45,-8.78 -3.7,-26.65 -7.74,-43.67 13.91,-10.31 31.86,-21.72 53.81,-31.62 16.32,-7.35 113.52,-51.17 195.59,-9.02 22.79,11.7 52.56,34.77 53.01,56.43 0.09,5.15 -0.9,11.9 -2.16,18.26 -3.69,-4.58 -11.63,-12.87 -20.72,-12.04 -14.38,1.3 -24.45,24.68 -22.29,42.28 0.68,5.63 6.65,16.2 18.53,37.1 9.08,15.97 9.71,16.26 12.12,21.2 4.9,10.09 10.31,25.47 11.08,47.33 2.41,-8.93 6.83,-22.31 15.25,-37.02 10.29,-17.94 16.2,-18.71 24.68,-34.64 4.69,-8.78 17.18,-32.23 8.99,-54.81 -1.77,-4.9 -6.23,-17.19 -17.35,-20.16 -6.53,-1.74 -13.9,0.12 -20.42,4.79 8.12,-31.52 -6.46,-60.37 -33.91,-88.89 96.24,22.28 154.75,106.68 164.43,182.14 -2.47,-3.39 -6.08,-6.9 -10.69,-7.37 -10.57,-1.07 -21.12,14.44 -22.01,27.47 -0.28,4.17 2.55,12.65 8.24,29.43 4.33,12.81 4.74,13.12 5.79,17.03 2.15,7.99 3.91,19.86 1.41,35.78 2.99,-6.13 8.06,-15.2 16.21,-24.66 9.94,-11.53 14.34,-11.26 22.69,-21.6 4.6,-5.71 16.92,-20.9 14.15,-38.39 -0.61,-3.79 -2.12,-13.3 -9.74,-17.01 -3.98,-1.93 -8.84,-1.88 -13.67,-0.1 1.55,-35.26 -7.63,-70.75 -22.08,-106.99 25.94,5.25 54.87,5.11 76.74,-6.43 0.26,5.79 1.75,12.74 6.82,16.78 11.33,9.07 34.91,-0.89 45.61,-15.17 3.41,-4.56 6.45,-16.38 12.37,-39.83 4.53,-17.9 4.27,-18.56 5.97,-23.81 3.47,-10.74 10.24,-25.66 24.91,-42.06 -7.96,4.8 -20.5,11.44 -36.85,16.23zm-230.65 956.83c-38.49,-17.42 -98.64,-36.21 -233.73,-25.99 -118,8.93 -168.17,30.49 -280.29,62.59 -0.69,-26.28 -7.87,-49.69 -21.17,-73.91 -28.57,-52.01 -94.05,-70.01 -124.55,-116.63 -39.37,-53.17 -48.78,-153.79 -61.91,-207.75 -8.19,-33.63 -27.6,-65.12 -52.43,-89.46 -13.5,22 -26.38,44.62 -39.65,66.8 -10,-26.15 -16.08,-53.29 -32.34,-76.93 -31.87,-46.4 -79.32,-62.55 -133.88,-63.22 -34.05,-0.43 -67.53,-10.98 -94.2,-30.36 -26.13,-19 -31.28,-53.44 -10.3,-76.74 32.69,-36.28 90.03,-30.83 110.48,14.88 8.17,18.25 4.96,33.92 -8.9,48.66 -11.25,11.98 -23.78,17.69 -39.96,11.54 -11.82,-4.49 -17.2,-11.75 -19.56,-20.99 1.57,2.04 4.28,4.76 7.56,4.7 6.01,-0.11 10.89,-9.51 10.52,-16.89 -0.11,-2.36 -2.26,-6.93 -6.55,-15.97 -3.29,-6.9 -3.55,-7.04 -4.4,-9.18 -1.73,-4.32 -3.5,-10.88 -3.16,-19.97 -1.27,3.62 -3.51,9.04 -7.46,14.91 -4.81,7.13 -7.29,7.27 -11.3,13.62 -2.22,3.51 -8.12,12.86 -5.4,22.49 0.58,2.09 2.06,7.32 6.59,8.89 2.49,0.87 5.39,0.43 8.09,-1.06 2.41,18.95 17.46,34.64 39.77,31.44 15.61,-2.24 29.22,-10.7 40.09,-21.81 17.53,-17.92 16.73,-39.46 7.09,-61.13 -11.74,-26.37 -32.77,-42.58 -60.96,-45.7 -38.64,-4.31 -77.96,12.89 -93.31,49.5 -15.17,36.17 3.44,74.35 33.95,95.59 3.67,2.54 8.52,5.46 12.15,8.21 -87.36,-7.05 -141.26,-18.68 -163.47,-107.2 0.67,-0.56 1.32,-1.18 1.94,-1.87 0.86,1.38 4.31,6.64 8.85,6.55 6.01,-0.09 10.91,-9.5 10.54,-16.88 -0.11,-2.36 -2.26,-6.93 -6.57,-15.96 -3.28,-6.91 -3.54,-7.05 -4.39,-9.19 -1.73,-4.34 -3.52,-10.88 -3.16,-19.99 -1.27,3.64 -3.52,9.07 -7.47,14.91 -4.81,7.14 -7.29,7.28 -11.3,13.63 -2.21,3.51 -8.1,12.86 -5.4,22.49 0.59,2.07 2.07,7.32 6.6,8.89 2.34,0.81 5.05,0.48 7.62,-0.82 -7.14,51.43 9.88,79.65 50.78,112.75 -39.33,7.84 -76.3,28.36 -114.38,38.88 -44.85,12.4 -79.11,-19.99 -81.15,-63.68 -1.21,-26.03 9.84,-46.42 27.87,-59.13 -1.38,4.09 -2.15,9.08 0.11,13.22 5.38,9.86 25.16,9.81 37.04,2.84 3.8,-2.24 9.5,-9.74 20.75,-24.68 8.58,-11.41 8.59,-11.96 11.38,-15.2 5.69,-6.6 14.96,-15.22 30.34,-22.51 -7.12,1.05 -18.03,2.02 -31.12,0.55 -15.97,-1.8 -18.36,-5.78 -32.32,-6.91 -7.72,-0.62 -28.29,-2.3 -41.87,10.52 -2.94,2.78 -10.34,9.75 -9.02,18.59 0.67,4.54 3.51,8.67 7.78,11.79 -10.2,6.11 -19.08,14.71 -25.71,25.4 -15.23,24.54 -17.18,49.77 -8.52,77.23 11.25,35.65 39.92,55.43 76.49,61.47 -10.92,13.59 -26.53,51.2 -25.23,66.66 0.8,9.38 1.61,17.08 3.11,23.64 -4.21,-1.75 -12.7,-4.46 -18.62,-0.51 -9.33,6.22 -7.52,25.93 0.5,37.15 2.56,3.59 10.56,8.58 26.44,18.44 12.13,7.53 12.67,7.49 16.15,9.99 7.09,5.06 16.51,13.54 25.15,28.19 -1.68,-7 -3.62,-17.78 -3.33,-30.95 0.37,-16.05 4.11,-18.78 3.99,-32.81 -0.07,-7.73 -0.25,-28.37 -14.23,-40.76 -3.03,-2.67 -10.64,-9.42 -19.33,-7.32 -3.46,0.85 -6.54,2.96 -9.02,5.96 -4.03,-27.66 6.9,-55.61 34.75,-72.22 35.15,-20.99 73.85,-33.34 111.79,-47.88 0.5,-0.19 1.38,1.79 1.74,2.05 -28.59,39.53 -50.46,83.08 -33.78,121.95 -4.37,-1.73 -12.42,-4.05 -18.08,-0.29 -9.32,6.23 -7.51,25.95 0.5,37.15 2.56,3.6 10.56,8.59 26.45,18.45 12.12,7.53 12.67,7.5 16.15,9.98 7.09,5.08 16.5,13.56 25.14,28.2 -1.67,-7 -3.62,-17.78 -3.32,-30.95 0.36,-16.06 4.1,-18.79 3.98,-32.8 -0.06,-7.75 -0.24,-28.39 -14.23,-40.76 -3.03,-2.68 -10.63,-9.42 -19.32,-7.33 -2.35,0.57 -4.53,1.73 -6.46,3.35 -3.92,-24.31 1.75,-48.39 21.81,-72.21 30.03,-35.7 63.62,-45.92 107.93,-31.2 -14.09,21.07 -29.95,43.1 -41.77,65.18 -12.42,23.21 -12.42,52.29 -7.03,75.76 2.19,9.55 5.04,18.34 8.83,26.32 -3.42,-0.42 -7.07,-0.13 -10.06,1.86 -9.33,6.23 -7.52,25.95 0.5,37.15 2.56,3.59 10.55,8.59 26.43,18.45 12.13,7.53 12.67,7.5 16.15,9.98 7.1,5.06 16.51,13.55 25.15,28.19 -1.67,-6.98 -3.62,-17.77 -3.34,-30.94 0.37,-16.07 4.11,-18.78 3.98,-32.8 -0.06,-7.76 -0.24,-28.39 -14.22,-40.77 -3.03,-2.68 -10.64,-9.42 -19.33,-7.31 -5.42,1.3 -9.96,5.75 -12.64,11.9 -13.2,-33.45 -11.54,-66.48 12,-103.63 22.8,-35.99 57.25,-53.19 98.69,-58.34 -3.97,5.09 -10.62,12.52 -14.04,17.57 -12.71,18.78 -15.8,46.67 -0.87,64.67 14.22,17.14 33.82,20.68 54.22,11.65 16.48,-7.29 23.19,-23.1 18.86,-41.1 2.46,-0.07 5.46,-0.66 7.19,-2.82 3.77,-4.68 -0.34,-14.46 -6.26,-18.9 -1.88,-1.41 -6.78,-2.67 -16.48,-5.14 -7.41,-1.89 -7.69,-1.78 -9.85,-2.48 -4.45,-1.44 -10.62,-4.26 -17.4,-10.34 1.99,3.31 4.72,8.5 6.71,15.28 2.41,8.26 0.93,10.25 3.27,17.4 1.27,3.93 4.71,14.46 13.85,18.51 1.98,0.88 6.96,3.09 11.06,0.61 0.39,-0.23 0.76,-0.52 1.12,-0.82 -0.23,0.61 -0.47,1.22 -0.74,1.86 -7.63,17.56 -23.01,22.57 -40.27,17.62 -16.8,-4.85 -24.96,-18.73 -20.26,-36.04 10.2,-37.59 36.76,-52.73 74.47,-37.18 76.02,31.31 92.21,109.41 84.66,183.45 -12.82,125.49 35.09,225.46 133.53,300.13 28.37,21.52 56.62,38.58 86.48,51.68 -0.09,0.02 -0.2,0.06 -0.3,0.08 -8.27,1.99 -16.39,3.92 -24.37,5.77 -49.43,-28.09 -95.94,-57.09 -133.18,-105.81 -19.69,32.07 -24.48,79.56 -11.89,114.68 3.1,8.63 6.22,14.52 10.45,18.43 -129.37,21.97 -208.2,21.63 -255.71,19.62 -81.78,-3.47 -140.31,-14.84 -196.4,-35.02 -84.16,-30.3 -145.15,-74.05 -182.98,-105.92 1.33,2.15 223.32,359.81 854.72,144.62 9.8,-3.36 74.17,-32.29 164.85,-58.35 167.5,-48.12 261.12,-42.06 299.82,-37.96 33.42,3.54 69.06,7.57 113.19,24.56 84.68,32.59 138.15,88.83 165.46,122.7 -23.6,-42.88 -78.15,-126.79 -180,-172.9z"/>
  <polygon class="fil0" points="707.7,3055.75 735.98,3113.05 799.21,3122.23 753.46,3166.83 764.25,3229.8 707.7,3200.07 651.15,3229.8 661.95,3166.83 616.19,3122.23 679.42,3113.05 "/>
  <polygon class="fil0" points="927.42,3055.75 955.7,3113.05 1018.93,3122.23 973.18,3166.83 983.99,3229.8 927.42,3200.07 870.87,3229.8 881.67,3166.83 835.92,3122.23 899.14,3113.05 "/>
  <polygon class="fil0" points="1147.15,3055.75 1175.44,3113.05 1238.66,3122.23 1192.89,3166.83 1203.71,3229.8 1147.15,3200.07 1090.59,3229.8 1101.4,3166.83 1055.64,3122.23 1118.87,3113.05 "/>
  <polygon class="fil0" points="1366.88,3055.75 1395.15,3113.05 1458.39,3122.23 1412.64,3166.83 1423.43,3229.8 1366.88,3200.07 1310.32,3229.8 1321.11,3166.83 1275.36,3122.23 1338.6,3113.05 "/>
 </g>
</svg>
